<svg width="512" height="512" fill="none" xmlns="http://www.w3.org/2000/svg">
  <rect width="512" height="512" rx="128" fill="#1E40AF"/>
  
  <path d="M140 90l-25 60h13m12-60l25 60h-13m-27-20h30" stroke="#FCD34D" stroke-width="12" stroke-linecap="round" stroke-linejoin="round"/>
  
  <path d="M352 150h8s-3-10-3-25c0-20 8-35 15-35s15 15 15 35c0 15-3 25-3 25h8" stroke="#FCD34D" stroke-width="12" stroke-linecap="round" stroke-linejoin="round"/>

  <path d="M130 180 V230 H160" stroke="#FCD34D" stroke-width="12" stroke-linecap="round" stroke-linejoin="round"/>
  
  <path d="M352 230 V180 H372 C385 180 385 205 372 205 H352 M372 205 L385 230" stroke="#FCD34D" stroke-width="12" stroke-linecap="round" stroke-linejoin="round"/>

  <path fill="#FCD34D" d="M236 80h40v180h-40z"/>
  
  <rect x="196" y="110" width="120" height="30" rx="4" fill="#FCD34D"/>
  
  <path d="M126 400V250l130 100 130-100v150" stroke="#fff" stroke-width="45" stroke-linecap="round" stroke-linejoin="round"/>
  
  <path fill="#FCD34D" d="M236 220h40v40h-40z"/>
</svg>
