<svg width="512" height="512" viewBox="0 0 512 512" fill="none" xmlns="http://www.w3.org/2000/svg">
  <rect width="512" height="512" rx="128" fill="#1E40AF"/>
  
  <path d="M140 90 L115 150 H128 M140 90 L165 150 H152 M125 130 H155" stroke="#FCD34D" stroke-width="12" stroke-linecap="round" stroke-linejoin="round"/>
  
  <path d="M352 150 H360 C360 150 357 140 357 125 C357 105 365 90 372 90 C379 90 387 105 387 125 C387 140 384 150 384 150 H392" stroke="#FCD34D" stroke-width="12" stroke-linecap="round" stroke-linejoin="round"/>

  <path d="M120 180 V230 M160 180 V230 M120 205 H160" stroke="#FCD34D" stroke-width="12" stroke-linecap="round" stroke-linejoin="round"/>
  
  <path d="M352 230 V180 H372 C385 180 385 205 372 205 H352 M372 205 L385 230" stroke="#FCD34D" stroke-width="12" stroke-linecap="round" stroke-linejoin="round"/>

  <rect x="236" y="80" width="40" height="180" fill="#FCD34D"/> <rect x="196" y="110" width="120" height="30" rx="4" fill="#FCD34D"/> <path d="M126 400V250L256 350L386 250V400" stroke="white" stroke-width="45" stroke-linecap="round" stroke-linejoin="round"/>
  
  <rect x="236" y="220" width="40" height="40" fill="#FCD34D"/>
</svg>